<?xml version="1.0" encoding="UTF-8" standalone="no"?>
<svg
   viewBox="0 0 512 512"
   version="1.1"
   id="svg4"
   sodipodi:docname="android.svg"
   width="512"
   height="512"
   inkscape:version="1.1 (c68e22c387, 2021-05-23)"
   xmlns:inkscape="http://www.inkscape.org/namespaces/inkscape"
   xmlns:sodipodi="http://sodipodi.sourceforge.net/DTD/sodipodi-0.dtd"
   xmlns="http://www.w3.org/2000/svg"
   xmlns:svg="http://www.w3.org/2000/svg">
  <defs
     id="defs8" />
  <sodipodi:namedview
     id="namedview6"
     pagecolor="#ffffff"
     bordercolor="#999999"
     borderopacity="1"
     inkscape:pageshadow="0"
     inkscape:pageopacity="0"
     inkscape:pagecheckerboard="0"
     showgrid="false"
     width="512px"
     inkscape:zoom="0.51757813"
     inkscape:cx="196.10566"
     inkscape:cy="474.32453"
     inkscape:window-width="1366"
     inkscape:window-height="707"
     inkscape:window-x="0"
     inkscape:window-y="30"
     inkscape:window-maximized="1"
     inkscape:current-layer="svg4" />
  <path
     fill="#a4c439"
     d="m 103.5838,182.38554 c -14.313235,-0.007 -25.914268,11.62222 -25.9178,25.92487 l 0.01766,108.54471 a 25.914273,25.914273 0 0 0 25.9284,25.93193 25.886021,25.886021 0 0 0 25.91427,-25.9284 V 208.29628 A 25.938994,25.938994 0 0 0 103.5838,182.38554 M 312.6249,84.908604 330.71686,51.871261 a 3.6127421,3.6127421 0 0 0 -1.41614,-4.901746 3.6092106,3.6092106 0 0 0 -4.88055,1.437328 l -18.2756,33.383432 c -15.37623,-6.84408 -32.58531,-10.679308 -50.79381,-10.661651 -18.15907,-0.01766 -35.36109,3.806976 -50.67374,10.61221 l -18.2968,-33.298676 a 3.5668323,3.5668323 0 0 0 -4.86643,-1.433796 3.5562378,3.5562378 0 0 0 -1.42673,4.873494 l 18.09903,33.016154 c -35.56238,18.33917 -59.59082,53.26587 -59.56964,93.36625 l 233.49686,-0.0283 c 0.007,-40.08625 -23.979,-74.94233 -59.48841,-93.327406 M 202.2438,135.96375 a 9.7911334,9.7911334 0 0 1 0.0106,-19.58226 9.8176178,9.8176178 0 0 1 9.79996,9.79642 9.8034917,9.8034917 0 0 1 -9.81055,9.78584 m 106.31986,-0.0177 a 9.7823026,9.7823026 0 0 1 -9.78937,-9.78584 9.8635275,9.8635275 0 0 1 9.7929,-9.81055 9.8529329,9.8529329 0 0 1 9.77171,9.81409 9.771708,9.771708 0 0 1 -9.77524,9.7823 m -168.9937,51.33767 0.0388,168.22382 a 27.623527,27.623527 0 0 0 27.65884,27.65531 l 18.83358,0.007 0.0212,57.4366 c -0.004,14.30264 11.62223,25.9284 25.90368,25.9284 14.32384,0 25.9284,-11.63635 25.93193,-25.94606 l -0.0141,-57.42247 34.9938,-0.0106 0.0141,57.43307 c 0,14.29205 11.62928,25.94252 25.91427,25.91427 14.32383,0.0106 25.93546,-11.62575 25.93193,-25.93546 l -0.0177,-57.41894 18.90068,-0.0141 A 27.669437,27.669437 0 0 0 371.354,355.46869 l -0.0318,-168.22382 z m 293.58915,20.9878 a 25.914273,25.914273 0 0 0 -25.92486,-25.9178 c -14.31324,-0.0141 -25.91075,11.60809 -25.91075,25.9284 l 0.0212,108.55177 a 25.900147,25.900147 0 0 0 25.91781,25.91781 25.910742,25.910742 0 0 0 25.91427,-25.93193 z"
     id="path2"
     style="fill:#000000;fill-opacity:1;stroke-width:3.53152" />
</svg>
