<?xml version="1.0" encoding="UTF-8" standalone="no"?>
<svg
   viewBox="0 0 512 512"
   version="1.1"
   id="svg4"
   sodipodi:docname="css.svg"
   width="512"
   height="512"
   inkscape:version="1.1 (c68e22c387, 2021-05-23)"
   xmlns:inkscape="http://www.inkscape.org/namespaces/inkscape"
   xmlns:sodipodi="http://sodipodi.sourceforge.net/DTD/sodipodi-0.dtd"
   xmlns="http://www.w3.org/2000/svg"
   xmlns:svg="http://www.w3.org/2000/svg">
  <defs
     id="defs8" />
  <sodipodi:namedview
     id="namedview6"
     pagecolor="#ffffff"
     bordercolor="#999999"
     borderopacity="1"
     inkscape:pageshadow="0"
     inkscape:pageopacity="0"
     inkscape:pagecheckerboard="0"
     showgrid="false"
     width="512px"
     inkscape:zoom="0.51757813"
     inkscape:cx="95.637736"
     inkscape:cy="277.25283"
     inkscape:window-width="1366"
     inkscape:window-height="707"
     inkscape:window-x="0"
     inkscape:window-y="30"
     inkscape:window-maximized="1"
     inkscape:current-layer="svg4" />
  <path
     fill="#1572b6"
     d="M 76.76,49 110.42012,426.88719 261.45716,469 412.916,426.7332 446.6029,49 Z m 299.91488,86.57564 -11.20442,125.88652 0.0335,0.67956 -0.0469,1.56333 v -0.0134 l -7.9606,88.02181 -0.87707,7.81999 -94.93795,26.25858 v 0.003 l -0.0737,0.0636 -94.77391,-26.40587 -6.41735,-72.77349 h 46.47473 l 3.29739,37.00438 51.50618,13.95949 -0.0134,0.0268 v -0.007 l 51.697,-14.157 5.46328,-60.26016 H 210.77114 l -0.92728,-10.18675 -2.11234,-23.86504 -1.10805,-12.81462 h 116.32577 l 4.23136,-46.8664 H 150.0055 l -0.92729,-10.17941 -2.10899,-23.87173 -1.1114,-12.81462 h 231.92511 z"
     id="path2"
     style="stroke-width:3.3476;fill:#000000;fill-opacity:1" />
</svg>
