<?xml version="1.0" encoding="UTF-8" standalone="no"?>
<svg
   viewBox="0 0 512 512"
   version="1.1"
   id="svg4"
   sodipodi:docname="java.svg"
   width="512"
   height="512"
   inkscape:version="1.1 (c68e22c387, 2021-05-23)"
   xmlns:inkscape="http://www.inkscape.org/namespaces/inkscape"
   xmlns:sodipodi="http://sodipodi.sourceforge.net/DTD/sodipodi-0.dtd"
   xmlns="http://www.w3.org/2000/svg"
   xmlns:svg="http://www.w3.org/2000/svg">
  <defs
     id="defs8" />
  <sodipodi:namedview
     id="namedview6"
     pagecolor="#ffffff"
     bordercolor="#999999"
     borderopacity="1"
     inkscape:pageshadow="0"
     inkscape:pageopacity="0"
     inkscape:pagecheckerboard="0"
     showgrid="false"
     inkscape:zoom="0.51757813"
     inkscape:cx="22.218868"
     inkscape:cy="362.26415"
     inkscape:window-width="1366"
     inkscape:window-height="707"
     inkscape:window-x="0"
     inkscape:window-y="30"
     inkscape:window-maximized="1"
     inkscape:current-layer="svg4" />
  <path
     fill="#EA2D2E"
     d="m 192.72613,388.25551 c -76.87467,21.4778 46.7729,65.84736 144.66072,23.90917 -16.03425,-6.23264 -27.53421,-13.42262 -27.53421,-13.42262 -43.64856,8.25145 -63.89666,8.90035 -103.51963,4.37407 -32.70138,-3.7452 -13.60688,-14.86062 -13.60688,-14.86062 z m 132.94045,-41.89813 c -57.85627,11.13144 -91.27464,10.77495 -133.60137,6.40889 -32.72941,-3.3847 -11.30368,-19.24671 -11.30368,-19.24671 -84.665479,28.103 47.13339,59.99124 165.46558,25.37922 -12.57745,-4.43015 -20.56053,-12.5414 -20.56053,-12.5414 z m 45.33891,-242.63667 c 0.004,0 -171.16149,42.7353 -89.41606,136.93801 24.12948,27.77854 -6.32878,52.75319 -6.32878,52.75319 0,0 61.24097,-31.60785 33.12195,-71.2068 -26.27245,-36.91121 -46.4124,-55.24866 62.62289,-118.4844 z m 40.04757,325.02698 c 0,0 14.13561,11.65618 -15.57361,20.66468 -56.48637,17.11174 -235.15027,22.2709 -284.77513,0.68495 -17.824732,-7.76277 15.61767,-18.52571 26.14027,-20.79686 10.97122,-2.37529 17.23592,-1.94269 17.23592,-1.94269 -19.83553,-13.96738 -128.229926,27.43807 -55.04438,39.31455 199.5609,32.34888 363.77274,-14.56822 312.01693,-37.92463 z M 342.46589,307.24711 c 9.59332,-6.54508 22.8437,-12.22897 22.8437,-12.22897 0,0 -37.74838,6.74937 -75.35656,9.90975 -46.03988,3.86136 -95.4244,4.62242 -120.2148,1.30581 -58.68943,-7.84688 32.17665,-29.43284 32.17665,-29.43284 0,0 -35.29698,-2.38731 -78.68518,18.60182 -51.319207,24.81443 126.94013,36.12612 219.23619,11.84443 z m 22.46718,60.66417 c -0.4326,1.16161 -1.8746,2.46743 -1.8746,2.46743 125.26581,-32.92969 79.2099,-116.07706 19.3148,-95.03186 -5.2553,1.85858 -8.01112,6.18057 -8.01112,6.18057 0,0 3.32061,-1.33785 10.72688,-2.884 30.27802,-6.30875 73.65821,40.53224 -20.15596,89.26786 z M 259.07419,275.89561 c -18.48165,-41.77396 -81.1526,-78.32067 0.028,-142.43363 C 360.32668,53.563118 308.38661,1.587 308.38661,1.587 c 20.94907,82.546535 -73.90655,107.48113 -108.14606,158.88846 -23.31635,35.0286 11.44388,72.66883 58.83364,115.42015 z m 109.24758,207.2796 c -76.85464,14.46808 -171.65417,12.78174 -227.86417,3.50086 0,0 11.51198,9.53323 70.68208,13.34251 90.02891,5.75599 228.31679,-3.20444 231.58533,-45.80756 0.004,0 -6.28873,16.15041 -74.40324,28.96419 z"
     id="path2"
     style="fill:#000000;fill-opacity:1;stroke-width:4.00556" />
</svg>
